<svg width="36" height="4" viewBox="0 0 36 4" fill="none" xmlns="http://www.w3.org/2000/svg">
<path d="M34.0222 3.7085C34.23 3.70895 34.4358 3.66119 34.6279 3.56796C34.8199 3.47473 34.9945 3.33787 35.1415 3.16519C35.2886 2.99251 35.4053 2.7874 35.4849 2.56162C35.5644 2.33584 35.6054 2.0938 35.6054 1.84937C35.6054 1.60494 35.5644 1.3629 35.4849 1.13712C35.4053 0.911338 35.2886 0.706236 35.1415 0.533554C34.9945 0.360872 34.8199 0.224009 34.6279 0.130778C34.4358 0.0375476 34.23 -0.0102091 34.0222 -0.00976252H1.96549C1.75773 -0.0102091 1.55192 0.0375476 1.35986 0.130778C1.1678 0.224009 0.993264 0.360872 0.846218 0.533554C0.699171 0.706236 0.582506 0.911338 0.50291 1.13712C0.423314 1.3629 0.382324 1.60494 0.382324 1.84937C0.382324 2.0938 0.423314 2.33584 0.50291 2.56162C0.582506 2.7874 0.699171 2.99251 0.846218 3.16519C0.993264 3.33787 1.1678 3.47473 1.35986 3.56796C1.55192 3.66119 1.75773 3.70895 1.96549 3.7085H34.0222Z" fill="white"/>
</svg>
