<svg width="18" height="14" viewBox="0 0 18 14" fill="none" xmlns="http://www.w3.org/2000/svg">
<path d="M11.7042 8.43202C10.6798 7.5668 9.47836 6.95249 11.3442 7.10688C12.0602 7.16613 11.3131 8.05937 12.02 8.73292C13.6091 10.2471 14.382 9.03081 13.3669 7.97644C11.6232 6.16543 8.29424 3.93978 6.21456 4.41011C3.5008 5.02384 15.7751 14.739 13.1733 8.16977C10.8869 2.39684 2.63001 1.54957 8.06074 8.20905C12.1588 13.2344 17.812 10.5453 11.1993 5.30669C3.96095 -0.427453 1.50981 7.32285 11.2187 11.2181C20.5069 14.9445 8.86109 0.138259 4.35996 2.75631C1.67552 4.3177 15.7287 17.1166 14.1388 8.71198" stroke="#F9DCE1" stroke-opacity="0.64" stroke-width="5" stroke-linecap="round"/>
</svg>
