<svg width="20" height="13" viewBox="0 0 20 13" fill="none" xmlns="http://www.w3.org/2000/svg">
<path d="M11.1615 5.91686C2.49535 2.36895 10.859 8.45513 11.6677 7.60035C13.6926 5.46005 2.59191 0.801645 7.78675 6.51927C13.851 13.1938 15.8335 5.46588 9.35873 3.59852C3.23495 1.83239 8.8305 11.2409 13.4631 9.05371C18.1487 6.84149 3.21252 -0.500715 4.47603 5.29514C4.97895 7.6021 8.65646 10.374 11.996 10.0581C16.5137 9.63091 12.9566 4.09412 7.31977 2.64241C-0.953534 0.511669 5.53724 10.5168 13.4107 10.5481C17.305 10.5637 16.4506 7.17831 12.8299 4.5465C7.38173 0.586407 4.71796 4.43779 4.36235 6.38799" stroke="#F9DCE1" stroke-opacity="0.64" stroke-width="5" stroke-linecap="round"/>
</svg>
