<svg width="16" height="13" viewBox="0 0 16 13" fill="none" xmlns="http://www.w3.org/2000/svg">
<path d="M4.642 5.11847C4.41996 4.06187 3.7561 5.46301 4.78396 6.44238C5.93958 7.5435 7.61667 7.76405 7.073 6.70841C6.44044 5.48017 4.51044 4.45243 4.71298 5.78043C4.96091 7.40604 7.59894 8.46885 7.96116 7.2245C8.68997 4.72078 0.650704 1.1147 4.9007 6.42155C7.95771 10.2387 15.2438 6.97891 4.49533 3.19573C-1.61268 1.04586 5.39044 10.3715 10.501 10.1068C16.7241 9.78446 4.71416 0.455198 1.69753 2.34589C-1.37798 4.27348 12.0965 14.7778 10.8804 8.65233C9.54631 1.93224 -2.7572 2.35401 4.99689 8.42826" stroke="#F9DCE1" stroke-opacity="0.64" stroke-width="5" stroke-linecap="round"/>
</svg>
