<svg width="20" height="25" viewBox="0 0 20 25" fill="none" xmlns="http://www.w3.org/2000/svg">
<path d="M9.99375 0.968262C11.9611 0.968262 13.8842 1.65461 15.52 2.94049C17.1558 4.22637 18.4307 6.05403 19.1836 8.19237C19.9365 10.3307 20.1335 12.6837 19.7496 14.9537C19.3658 17.2238 18.4185 19.309 17.0274 20.9456C15.6363 22.5822 13.8639 23.6968 11.9343 24.1483C10.0048 24.5998 8.00478 24.3681 6.1872 23.4824C4.36962 22.5966 2.8161 21.0967 1.72311 19.1722C0.630113 17.2478 0.0467529 14.9852 0.0467529 12.6707C0.0497354 9.56811 1.09867 6.59358 2.96345 4.39971C4.82823 2.20583 7.35655 0.971771 9.99375 0.968262Z" fill="white"/>
</svg>
